<svg xmlns="http://www.w3.org/2000/svg" viewBox="0 0 100 100" fill-rule="evenodd"><rect x="0" y="0" width="100" height="100" fill="#ee5136" rx="50" ry="50"></rect><g style="transform-origin:center;transform:scale(0.3);"><path d="M73.859 16H25.398C20.209 16 16 20.209 16 25.401v48.458c0 5.192 4.209 9.401 9.398 9.401h48.461c5.192 0 9.398-4.209 9.398-9.401V25.401c0-5.192-4.206-9.401-9.398-9.401ZM49.627 60.93c-6.239 0-11.3-5.062-11.3-11.304 0-6.239 5.061-11.3 11.3-11.3 6.242 0 11.303 5.062 11.303 11.3.001 6.243-5.061 11.304-11.303 11.304Z" stroke-width="0" stroke="#ffffff" fill="#ffffff"></path></g></svg>
